<svg width="88" height="88" viewBox="0 0 88 88" fill="none" xmlns="http://www.w3.org/2000/svg">
<rect width="88" height="88" fill="#FFAE34"/>
<path d="M14.0818 61.285V46.9288H9.85938V19H50.1296V27.281H47.2067V21.9229H12.7823V44.0059H17.0038V54.2279L27.2267 44.0059H34.0545V46.9288H28.437L14.0818 61.285Z" fill="black"/>
<path d="M42.9851 73.6255V59.2703H38.7627V31.3406H79.0338V59.2703H57.3403L42.9851 73.6255ZM41.6856 56.3474H45.908V66.5694L56.13 56.3474H76.1109V34.2635H41.6856V56.3474Z" fill="black"/>
<path d="M31.5384 36.3237H28.6155V35.27C28.6139 34.6952 28.7261 34.1258 28.9459 33.5948C29.1657 33.0637 29.4886 32.5815 29.8959 32.176L31.8979 30.174C32.5804 29.4915 32.8188 28.5005 32.4903 27.7088C32.1945 26.9926 31.4957 26.6168 30.4719 26.6168C29.7309 26.6175 29.0204 26.9121 28.4963 27.436C27.9722 27.9599 27.6774 28.6703 27.6764 29.4114H24.7544C24.7563 27.8954 25.3594 26.4421 26.4315 25.3703C27.5035 24.2984 28.9569 23.6955 30.4728 23.6938C32.6759 23.6938 34.4404 24.7767 35.1921 26.5922C35.9665 28.4632 35.4742 30.7336 33.9654 32.2424L31.9634 34.2444C31.6922 34.5173 31.5394 34.8861 31.5384 35.2709V36.3237Z" fill="black"/>
<path d="M30.155 41.1277C31.0527 41.1277 31.7803 40.4001 31.7803 39.5025C31.7803 38.6048 31.0527 37.8772 30.155 37.8772C29.2574 37.8772 28.5298 38.6048 28.5298 39.5025C28.5298 40.4001 29.2574 41.1277 30.155 41.1277Z" fill="black"/>
<path d="M51.2317 47.6404C52.1293 47.6404 52.857 46.9128 52.857 46.0152C52.857 45.1175 52.1293 44.3899 51.2317 44.3899C50.3341 44.3899 49.6064 45.1175 49.6064 46.0152C49.6064 46.9128 50.3341 47.6404 51.2317 47.6404Z" fill="black"/>
<path d="M59.3543 47.6404C60.2519 47.6404 60.9795 46.9128 60.9795 46.0152C60.9795 45.1175 60.2519 44.3899 59.3543 44.3899C58.4567 44.3899 57.729 45.1175 57.729 46.0152C57.729 46.9128 58.4567 47.6404 59.3543 47.6404Z" fill="black"/>
<path d="M67.4768 47.6404C68.3744 47.6404 69.1021 46.9128 69.1021 46.0152C69.1021 45.1175 68.3744 44.3899 67.4768 44.3899C66.5792 44.3899 65.8516 45.1175 65.8516 46.0152C65.8516 46.9128 66.5792 47.6404 67.4768 47.6404Z" fill="black"/>
</svg>
