<svg width="88" height="88" viewBox="0 0 88 88" fill="none" xmlns="http://www.w3.org/2000/svg">
<rect width="88" height="88" fill="#FFAE34"/>
<path d="M75.3429 71.1168H13.0225V31.884H75.3429V71.1168ZM15.8811 68.2305H72.4851V34.7748H15.8811V68.2305Z" fill="black"/>
<path d="M75.3253 59.8841H50.699C49.6892 59.8951 48.6873 59.7035 47.7512 59.3203C46.8151 58.9372 45.9635 58.3701 45.2456 57.6519C44.5277 56.9337 43.9577 56.0787 43.5687 55.1363C43.1798 54.1939 42.9795 53.1828 42.9795 52.1616C42.9795 51.1404 43.1798 50.1294 43.5687 49.1869C43.9577 48.2445 44.5277 47.3895 45.2456 46.6713C45.9635 45.9531 46.8151 45.386 47.7512 45.0029C48.6873 44.6198 49.6892 44.4281 50.699 44.4392H75.3253V59.8841ZM50.699 47.33C50.0661 47.3212 49.4377 47.4398 48.8505 47.6786C48.2632 47.9175 47.7287 48.272 47.2781 48.7216C46.8275 49.1711 46.4696 49.7067 46.2254 50.2972C45.9812 50.8878 45.8554 51.5215 45.8554 52.1616C45.8554 52.8017 45.9812 53.4355 46.2254 54.026C46.4696 54.6165 46.8275 55.1521 47.2781 55.6017C47.7287 56.0512 48.2632 56.4057 48.8505 56.6446C49.4377 56.8835 50.0661 57.002 50.699 56.9933H72.4666V47.33H50.699Z" fill="black"/>
<path d="M15.8811 29.4775H13.0225V23.3674H41.6413V26.2582H15.8811V29.4775Z" fill="black"/>
<path d="M61.4188 34.2619L49.5489 20.0743L33.1515 34.1044L31.3057 31.8976L49.8853 16L63.602 32.3953L61.4188 34.2619Z" fill="black"/>
<path d="M67.6704 34.2618L56.8783 21.3567L54.6168 23.2917L52.77 21.0849L57.2147 17.2815L69.8536 32.3952L67.6704 34.2618Z" fill="black"/>
<path d="M51.2505 56.1954C50.4491 56.1952 49.6657 55.9547 48.9995 55.5044C48.3332 55.054 47.814 54.414 47.5074 53.6652C47.2009 52.9164 47.1207 52.0925 47.2772 51.2977C47.4336 50.5029 47.8196 49.7729 48.3864 49.1999C48.9531 48.6269 49.6752 48.2367 50.4612 48.0787C51.2472 47.9206 52.0619 48.0018 52.8023 48.312C53.5427 48.6222 54.1755 49.1474 54.6207 49.8212C55.0659 50.4951 55.3036 51.2873 55.3036 52.0977C55.3024 53.1843 54.875 54.226 54.1151 54.9942C53.3552 55.7624 52.325 56.1944 51.2505 56.1954ZM51.2505 50.8908C51.0142 50.8908 50.7833 50.9617 50.5868 51.0944C50.3904 51.2272 50.2373 51.4158 50.147 51.6366C50.0566 51.8573 50.033 52.1002 50.0791 52.3346C50.1253 52.5689 50.2391 52.7841 50.4063 52.953C50.5734 53.1218 50.7863 53.2368 51.018 53.2833C51.2498 53.3298 51.49 53.3058 51.7082 53.2142C51.9264 53.1226 52.1129 52.9677 52.244 52.769C52.3752 52.5702 52.4451 52.3366 52.4449 52.0977C52.4444 51.7776 52.3184 51.4708 52.0945 51.2445C51.8706 51.0182 51.567 50.891 51.2505 50.8908Z" fill="black"/>
<path d="M73.8961 24.198H62.335V27.0888H73.8961V24.198Z" fill="black"/>
</svg>
