<svg width="88" height="88" viewBox="0 0 88 88" fill="none" xmlns="http://www.w3.org/2000/svg">
<rect width="88" height="88" fill="#FFAE34"/>
<path d="M63.6642 32.2447H25.707V11H63.6642V32.2447ZM28.2565 29.6952H61.1164V13.5494H28.2565V29.6952Z" fill="black"/>
<path d="M62.3892 21.6978H26.9814V24.2472H62.3892V21.6978Z" fill="black"/>
<path d="M45.3946 12.2747H42.8452V22.9724H45.3946V12.2747Z" fill="black"/>
<path d="M70.5219 65.9532H65.3643V63.4038H67.9725V57.4557H20.5494V63.4038H23.4409V65.9532H18V54.9062H70.5219V65.9532Z" fill="black"/>
<path d="M50.9919 70.4851H37.5312V73.0345H50.9919V70.4851Z" fill="black"/>
<path d="M30.6646 76.9999C28.8437 76.9999 27.0635 76.46 25.5494 75.4483C24.0353 74.4366 22.8552 72.9986 22.1584 71.3162C21.4615 69.6339 21.2792 67.7826 21.6344 65.9966C21.9897 64.2106 22.8666 62.57 24.1542 61.2824C25.4419 59.9948 27.0824 59.1179 28.8684 58.7626C30.6544 58.4074 32.5057 58.5897 34.1881 59.2865C35.8704 59.9834 37.3084 61.1635 38.3201 62.6776C39.3318 64.1917 39.8718 65.9718 39.8718 67.7928C39.8692 70.2339 38.8984 72.5743 37.1723 74.3005C35.4462 76.0266 33.1058 76.9974 30.6646 76.9999ZM30.6646 61.1375C29.348 61.1373 28.0609 61.5276 26.966 62.259C25.8712 62.9904 25.0179 64.03 24.5139 65.2464C24.0099 66.4627 23.878 67.8013 24.1348 69.0926C24.3915 70.384 25.0255 71.5702 25.9564 72.5013C26.8874 73.4323 28.0735 74.0664 29.3649 74.3234C30.6562 74.5803 31.9947 74.4485 33.2112 73.9447C34.4276 73.4408 35.4673 72.5876 36.1988 71.4929C36.9303 70.3981 37.3208 69.1111 37.3208 67.7944C37.318 66.0299 36.6159 64.3384 35.3683 63.0906C34.1206 61.8428 32.4292 61.1404 30.6646 61.1375Z" fill="black"/>
<path d="M57.8572 76.9999C56.1941 77.0001 54.5621 76.5499 53.1344 75.697C51.7067 74.8442 50.5366 73.6206 49.7485 72.1561C48.9604 70.6917 48.5836 69.0411 48.6582 67.3798C48.7328 65.7184 49.256 64.1083 50.1722 62.7204C51.0884 61.3325 52.3635 60.2186 53.8619 59.4972C55.3603 58.7757 57.0261 58.4736 58.6824 58.6229C60.3388 58.7721 61.9237 59.3672 63.269 60.3449C64.6143 61.3227 65.6696 62.6465 66.323 64.1759C66.9211 65.5761 67.1627 67.1027 67.026 68.6192C66.8893 70.1357 66.3787 71.5946 65.5399 72.8653C64.701 74.136 63.5601 75.1788 62.2194 75.9004C60.8786 76.622 59.3798 76.9998 57.8572 76.9999ZM57.8572 61.1375C56.5406 61.1375 55.2535 61.5279 54.1588 62.2594C53.0641 62.9909 52.2108 64.0305 51.707 65.2469C51.2031 66.4633 51.0713 67.8018 51.3282 69.0931C51.585 70.3844 52.219 71.5706 53.15 72.5015C54.081 73.4325 55.2672 74.0665 56.5585 74.3234C57.8498 74.5803 59.1883 74.4484 60.4047 73.9446C61.6211 73.4407 62.6607 72.5875 63.3922 71.4928C64.1237 70.3981 64.5141 69.111 64.5141 67.7944C64.5161 66.8959 64.3344 66.0064 63.9799 65.1807C63.4685 63.9804 62.6153 62.9571 61.5266 62.2382C60.438 61.5193 59.1618 61.1365 57.8572 61.1375Z" fill="black"/>
<path d="M61.3067 53.5076H48.7874L28.627 33.3472H41.1463L61.3067 53.5076ZM49.8438 50.9582H55.1522L40.0906 35.8958H34.7814L49.8438 50.9582Z" fill="black"/>
<path d="M49.7599 43.7632L47.9574 41.9599L54.023 35.8959H48.7146L45.304 39.3073L43.5015 37.5047L47.659 33.3464H60.1791L49.7599 43.7632Z" fill="black"/>
<path d="M40.0183 53.5059H27.499L39.0452 41.9604L40.8478 43.763L33.6535 50.9572H38.9627L43.5012 46.4188L45.3037 48.2213L40.0183 53.5059Z" fill="black"/>
</svg>
