<svg width="88" height="88" viewBox="0 0 88 88" fill="none" xmlns="http://www.w3.org/2000/svg">
<rect width="88" height="88" fill="#FFAE34"/>
<path d="M47.5879 76.9999C46.7889 77.001 45.998 76.8385 45.2629 76.5222L27.93 69.0357C27.1013 68.6772 26.198 68.5308 25.2999 68.6096C24.4019 68.6883 23.537 68.9898 22.7818 69.4874L18.258 72.4633L16.8032 70.2026L21.3278 67.2275C22.4494 66.4882 23.7341 66.0401 25.068 65.9229C26.4019 65.8058 27.7437 66.0232 28.9746 66.5559L46.3067 74.0415C46.8213 74.262 47.3831 74.3463 47.9389 74.2865C48.4947 74.2267 49.0263 74.0249 49.4836 73.6999L74.1959 56.0372L72.9902 54.3129C72.6698 53.8566 72.1835 53.5473 71.638 53.4529C71.0924 53.3584 70.5321 53.4866 70.0798 53.8092L54.7805 64.2834L53.2858 62.0504L68.5644 51.5913C70.6835 50.076 73.657 50.5923 75.1707 52.7573L77.9175 56.6827L51.0281 75.8993C50.0211 76.6162 48.8195 77.0006 47.5879 76.9999Z" fill="black"/>
<path d="M53.0068 57.7618H52.5825V56.4128L51.8127 55.313L61.126 48.6551C62.1558 47.9191 63.4326 47.6268 64.6756 47.8425C65.9185 48.0582 67.0258 48.7642 67.7539 49.8052L69.5807 52.5302L67.372 54.0412L65.5643 51.3398C65.241 50.891 64.7561 50.5889 64.2143 50.4987C63.6725 50.4086 63.1173 50.5376 62.6688 50.8579L53.0068 57.7618Z" fill="black"/>
<path d="M56.4494 52.0639L51.8843 55.3269L53.424 57.5286L57.9891 54.2657L56.4494 52.0639Z" fill="black"/>
<path d="M43.5295 56.5662L42.0083 54.3517L52.7706 46.7904C53.7506 46.0936 54.9641 45.8181 56.1447 46.0244C57.3254 46.2307 58.377 46.902 59.0688 47.891L60.8649 50.5026L58.6744 52.0422L56.885 49.4398C56.5991 49.0358 56.1666 48.7627 55.6821 48.6801C55.1975 48.5975 54.7004 48.7122 54.2992 48.9991L43.5295 56.5662Z" fill="black"/>
<path d="M51.6103 65.3842C51.4525 65.3842 51.2948 65.3775 51.1362 65.3624C50.7783 65.3322 42.1683 64.5951 39.2239 64.2711C37.5914 64.0931 32.8633 63.4685 32.664 63.4416L33.0103 60.7679C33.0593 60.7746 37.9094 61.4151 39.5112 61.5898C42.429 61.9071 51.2806 62.666 51.3703 62.6735C51.6978 62.7044 52.028 62.6696 52.3421 62.5712C52.6562 62.4728 52.948 62.3128 53.2009 62.1002C53.4537 61.8876 53.6626 61.6267 53.8156 61.3324C53.9685 61.0381 54.0625 60.7162 54.0922 60.3851C54.1461 59.8095 53.9752 59.2355 53.616 58.7856C53.2568 58.3357 52.7378 58.0457 52.17 57.9775L42.8492 56.8232C40.7116 56.6225 38.6557 55.8928 36.8631 54.6984L34.7972 53.3175C33.5215 52.4631 32.0741 51.9058 30.5594 51.6859C29.0447 51.4659 27.5006 51.5888 26.0386 52.0457L11.783 56.4781L11 53.9001L25.2556 49.4718C27.0932 48.8972 29.0341 48.7422 30.9382 49.0181C32.8423 49.2939 34.662 49.9937 36.2661 51.0668L38.332 52.4453C39.7629 53.3981 41.4044 53.9788 43.1108 54.136L43.1531 54.141L52.493 55.3012C53.7496 55.4524 54.8979 56.0947 55.6922 57.0907C56.4866 58.0867 56.8639 59.3574 56.7436 60.6311C56.6276 61.9281 56.0366 63.1346 55.0863 64.0139C54.1361 64.8933 52.8952 65.382 51.607 65.3842H51.6103Z" fill="black"/>
<path d="M46.951 48.2663H39.6538V42.7786C38.6168 42.4903 37.6179 42.0768 36.6787 41.5471L32.8507 45.4171L27.6901 40.2005L31.4939 36.3549C30.9536 35.3996 30.5311 34.381 30.2359 33.3218H24.8718V25.9445H30.211C30.5015 24.8744 30.9215 23.8447 31.4615 22.8787L27.6901 19.0666L32.8507 13.8492L36.6214 17.6621C37.5769 17.1161 38.5954 16.6915 39.6538 16.3979V11H46.951V16.4231C47.9985 16.722 49.006 17.1491 49.9511 17.6949L53.7541 13.8492L58.9148 19.0666L55.0827 22.9366C55.6073 23.8859 56.0166 24.8959 56.3017 25.9445H61.7297V33.3218H56.2801C55.9907 34.3598 55.5793 35.3589 55.0545 36.2978L58.9148 40.2005L53.7541 45.4171L49.8946 41.5143C48.9659 42.0448 47.9777 42.4607 46.951 42.7534V48.2663ZM42.321 45.5699H44.2881V40.58L45.3675 40.3668C46.7949 40.0859 48.1509 39.5147 49.3532 38.6878L50.2666 38.0632L53.7541 41.6042L55.1425 40.2005L51.6434 36.6621L52.2612 35.7387C53.0785 34.5229 53.6435 33.1521 53.9219 31.7092L54.1336 30.6179H59.0684V28.6409H54.1394L53.9352 27.5454C53.6663 26.0938 53.1074 24.713 52.2927 23.4873L51.6832 22.5639L55.1425 19.0666L53.7541 17.663L50.3023 21.1519L49.389 20.5189C48.176 19.6761 46.8047 19.0943 45.3601 18.8097L44.2806 18.5965V13.6939H42.321V18.5847L41.234 18.7912C39.7795 19.0669 38.3969 19.643 37.1727 20.4836L36.2593 21.1082L32.8491 17.6605L31.4624 19.0666L34.8726 22.5143L34.2549 23.4378C33.4229 24.6758 32.8527 26.0742 32.58 27.5454L32.3758 28.6442H27.5389V30.6288H32.3849L32.5966 31.7201C32.8782 33.1803 33.4536 34.5665 34.2872 35.7924L34.9133 36.7159L31.4624 40.2056L32.8507 41.6092L36.31 38.1111L37.2234 38.7273C38.4359 39.5507 39.8017 40.1157 41.2373 40.3878L42.3243 40.5943L42.321 45.5699Z" fill="black"/>
<path d="M43.2137 36.6531C41.7701 36.6526 40.359 36.2194 39.1589 35.4081C37.9588 34.5969 37.0236 33.4442 36.4714 32.0956C35.9193 30.7471 35.7751 29.2633 36.0571 27.8319C36.339 26.4005 37.0344 25.0858 38.0554 24.0539C39.0764 23.0221 40.3771 22.3195 41.793 22.0349C43.2089 21.7504 44.6765 21.8967 46.0102 22.4553C47.3439 23.014 48.4838 23.9599 49.2858 25.1734C50.0878 26.387 50.5159 27.8137 50.5159 29.2732C50.5139 31.2303 49.7438 33.1066 48.3748 34.4903C47.0057 35.8739 45.1495 36.6518 43.2137 36.6531ZM43.2137 24.5897C42.2975 24.5897 41.4018 24.8644 40.64 25.379C39.8782 25.8937 39.2844 26.6251 38.9338 27.4809C38.5831 28.3367 38.4914 29.2784 38.6701 30.1869C38.8489 31.0954 39.2901 31.9299 39.938 32.5849C40.5859 33.2399 41.4113 33.686 42.3099 33.8667C43.2086 34.0474 44.14 33.9546 44.9865 33.6002C45.833 33.2457 46.5565 32.6454 47.0655 31.8752C47.5746 31.105 47.8463 30.1995 47.8463 29.2732C47.8447 28.0315 47.3562 26.8412 46.4877 25.9632C45.6193 25.0852 44.4419 24.5913 43.2137 24.5897Z" fill="black"/>
</svg>
