<svg width="32" height="32" viewBox="0 0 32 32" fill="none" xmlns="http://www.w3.org/2000/svg">
<path d="M14.044 17.4425C15.3776 18.7954 16.9914 19.84 18.7718 20.5028L21.1804 18.5861C21.2518 18.5369 21.3364 18.5106 21.4231 18.5106C21.5098 18.5106 21.5945 18.5369 21.6659 18.5861L26.1381 21.4675C26.3079 21.5696 26.4517 21.7097 26.558 21.8769C26.6643 22.044 26.7303 22.2336 26.7507 22.4307C26.7712 22.6277 26.7455 22.8268 26.6758 23.0123C26.6061 23.1977 26.4942 23.3644 26.349 23.4991L24.2534 25.5691C23.9533 25.8657 23.5845 26.0833 23.1798 26.2026C22.7751 26.3219 22.3472 26.3391 21.9343 26.2528C17.8148 25.402 14.0179 23.4094 10.9773 20.5028C8.00423 17.5672 5.94687 13.832 5.05481 9.75026C4.96668 9.3437 4.98508 8.92126 5.1082 8.5239C5.23133 8.12653 5.45502 7.76771 5.75759 7.4822L7.92981 5.38665C8.06423 5.24851 8.22816 5.14258 8.40932 5.07677C8.59049 5.01097 8.78419 4.987 8.97593 5.00667C9.16767 5.02633 9.35248 5.08912 9.51651 5.19033C9.68055 5.29154 9.81956 5.42855 9.92314 5.59109L12.9004 10.0058C12.9517 10.0751 12.9794 10.1591 12.9794 10.2454C12.9794 10.3317 12.9517 10.4157 12.9004 10.485L10.939 12.8425C11.6198 14.5872 12.6804 16.1586 14.044 17.4425Z" fill="white"/>
</svg>
