<svg width="52" height="52" viewBox="0 0 52 52" fill="none" xmlns="http://www.w3.org/2000/svg">
<circle cx="26" cy="26" r="25" stroke="white" stroke-width="2"/>
<path d="M26.003 14H25.997C19.3805 14 14 19.382 14 26C14 28.625 14.846 31.058 16.2845 33.0335L14.789 37.4915L19.4015 36.017C21.299 37.274 23.5625 38 26.003 38C32.6195 38 38 32.6165 38 26C38 19.3835 32.6195 14 26.003 14ZM32.9855 30.9455C32.696 31.763 31.547 32.441 30.6305 32.639C30.0035 32.7725 29.1845 32.879 26.4275 31.736C22.901 30.275 20.63 26.6915 20.453 26.459C20.2835 26.2265 19.028 24.5615 19.028 22.8395C19.028 21.1175 19.9025 20.279 20.255 19.919C20.5445 19.6235 21.023 19.4885 21.482 19.4885C21.6305 19.4885 21.764 19.496 21.884 19.502C22.2365 19.517 22.4135 19.538 22.646 20.0945C22.9355 20.792 23.6405 22.514 23.7245 22.691C23.81 22.868 23.8955 23.108 23.7755 23.3405C23.663 23.5805 23.564 23.687 23.387 23.891C23.21 24.095 23.042 24.251 22.865 24.47C22.703 24.6605 22.52 24.8645 22.724 25.217C22.928 25.562 23.633 26.7125 24.671 27.6365C26.0105 28.829 27.0965 29.21 27.485 29.372C27.7745 29.492 28.1195 29.4635 28.331 29.2385C28.5995 28.949 28.931 28.469 29.2685 27.9965C29.5085 27.6575 29.8115 27.6155 30.1295 27.7355C30.4535 27.848 32.168 28.6955 32.5205 28.871C32.873 29.048 33.1055 29.132 33.191 29.2805C33.275 29.429 33.275 30.1265 32.9855 30.9455Z" fill="white"/>
</svg>
