<svg width="88" height="88" viewBox="0 0 88 88" fill="none" xmlns="http://www.w3.org/2000/svg">
<rect width="88" height="88" fill="#FFAE34"/>
<path d="M18.5882 50H15.1308V27.0805L8.19733 29.6272V26.5043L18.0492 22.8052H18.5882V50ZM40.1143 38.4566C40.1143 42.4841 39.4265 45.4768 38.051 47.4348C36.6754 49.3928 34.5254 50.3718 31.6008 50.3718C28.7134 50.3718 26.5758 49.4176 25.1878 47.5092C23.7999 45.5884 23.0812 42.7258 23.0316 38.9213V34.33C23.0316 30.3521 23.7194 27.3966 25.0949 25.4634C26.4704 23.5302 28.6267 22.5636 31.5636 22.5636C34.4758 22.5636 36.6197 23.4992 37.9952 25.3704C39.3708 27.2293 40.0771 30.1043 40.1143 33.9954V38.4566ZM36.6754 33.7538C36.6754 30.8416 36.2665 28.7225 35.4486 27.3966C34.6307 26.0582 33.3357 25.389 31.5636 25.389C29.8039 25.389 28.5213 26.052 27.7158 27.378C26.9104 28.7039 26.4952 30.7425 26.4704 33.4935V38.9957C26.4704 41.9203 26.8918 44.0827 27.7344 45.483C28.5895 46.871 29.8783 47.5649 31.6008 47.5649C33.2986 47.5649 34.5564 46.9081 35.3743 45.5946C36.2045 44.281 36.6383 42.2115 36.6754 39.386V33.7538ZM60.3488 38.4566C60.3488 42.4841 59.6611 45.4768 58.2855 47.4348C56.91 49.3928 54.7599 50.3718 51.8354 50.3718C48.948 50.3718 46.8103 49.4176 45.4224 47.5092C44.0345 45.5884 43.3157 42.7258 43.2661 38.9213V34.33C43.2661 30.3521 43.9539 27.3966 45.3294 25.4634C46.705 23.5302 48.8612 22.5636 51.7982 22.5636C54.7104 22.5636 56.8542 23.4992 58.2298 25.3704C59.6053 27.2293 60.3117 30.1043 60.3488 33.9954V38.4566ZM56.91 33.7538C56.91 30.8416 56.501 28.7225 55.6832 27.3966C54.8653 26.0582 53.5703 25.389 51.7982 25.389C50.0385 25.389 48.7559 26.052 47.9504 27.378C47.1449 28.7039 46.7298 30.7425 46.705 33.4935V38.9957C46.705 41.9203 47.1263 44.0827 47.969 45.483C48.8241 46.871 50.1128 47.5649 51.8354 47.5649C53.5331 47.5649 54.7909 46.9081 55.6088 45.5946C56.4391 44.281 56.8728 42.2115 56.91 39.386V33.7538ZM73.8172 35.4825H81.3641V38.7355H73.8172V47.2861H70.3598V38.7355H62.8129V35.4825H70.3598V27.5824H73.8172V35.4825Z" fill="black"/>
<rect x="10" y="58" width="69" height="3" fill="#232323"/>
<rect x="10" y="65" width="33" height="3" fill="#232323"/>
</svg>
