<svg width="88" height="88" viewBox="0 0 88 88" fill="none" xmlns="http://www.w3.org/2000/svg">
<rect width="88" height="88" fill="#FFAE34"/>
<path d="M23.4899 69.3092H16V11H61.9008V16.8835H58.9759V13.9906H18.9249V66.3195H23.4899V69.3092Z" fill="black"/>
<path d="M71.0361 76.9999H25.1353V18.6898H71.0361V76.9999ZM28.062 74.0093H68.1112V21.6823H28.062V74.0093Z" fill="black"/>
<path d="M65.5624 33.7354H46.8564V36.726H65.5624V33.7354Z" fill="black"/>
<path d="M65.5624 27.5956H46.8564V30.5862H65.5624V27.5956Z" fill="black"/>
<path d="M65.4275 54.4446H30.6099V57.4352H65.4275V54.4446Z" fill="black"/>
<path d="M65.4275 47.1809H30.6099V50.1715H65.4275V47.1809Z" fill="black"/>
<path d="M65.4275 61.6632H30.6099V64.6539H65.4275V61.6632Z" fill="black"/>
<path d="M37.7146 39.7529C36.2111 39.7531 34.7412 39.2974 33.491 38.4434C32.2407 37.5895 31.2662 36.3756 30.6907 34.9554C30.1152 33.5351 29.9646 31.9722 30.2578 30.4644C30.551 28.9566 31.2749 27.5716 32.338 26.4844C33.4011 25.3973 34.7557 24.6569 36.2303 24.3569C37.705 24.057 39.2335 24.2108 40.6226 24.7991C42.0117 25.3874 43.199 26.3836 44.0344 27.6618C44.8697 28.9401 45.3156 30.4429 45.3156 31.9802C45.3132 34.0408 44.5116 36.0162 43.0867 37.4733C41.6618 38.9304 39.7299 39.7502 37.7146 39.7529ZM37.7146 27.1982C36.7896 27.1982 35.8854 27.4786 35.1162 28.0041C34.3471 28.5296 33.7477 29.2764 33.3937 30.1502C33.0397 31.024 32.9471 31.9855 33.1275 32.9132C33.308 33.8408 33.7534 34.6929 34.4075 35.3616C35.0616 36.0304 35.8949 36.4859 36.8022 36.6704C37.7094 36.8549 38.6498 36.7602 39.5044 36.3983C40.359 36.0363 41.0894 35.4234 41.6034 34.637C42.1173 33.8506 42.3916 32.926 42.3916 31.9802C42.3901 30.7124 41.8969 29.4969 41.0201 28.6004C40.1433 27.7039 38.9546 27.1996 37.7146 27.1982Z" fill="black"/>
</svg>
