<svg width="88" height="88" viewBox="0 0 88 88" fill="none" xmlns="http://www.w3.org/2000/svg">
<rect width="88" height="88" fill="#FFAE34"/>
<path d="M29.6415 56.8769H21.9453V59.4569H29.6415V56.8769Z" fill="black" stroke="black" stroke-width="0.3"/>
<path d="M60.75 59.4569H42.9965V56.8769H58.2007V24.58H21.9453V22H60.75V59.4569Z" fill="black" stroke="black" stroke-width="0.3"/>
<path d="M62.8405 56.8368H59.7246V59.4167H62.8405V56.8368Z" fill="black" stroke="black" stroke-width="0.3"/>
<path d="M82.2314 59.4166H76.1781V56.8367H79.6822V45.8044L72.7082 32.1383H59.4897V29.5583H74.2614L82.2314 45.177V59.4166Z" fill="black" stroke="black" stroke-width="0.3"/>
<path d="M75.8235 48.0215H63.8765V34.1047H70.1218V36.6847H66.4257V45.4415H75.8235V48.0215Z" fill="black" stroke="black" stroke-width="0.3"/>
<path d="M34.656 30.0378H17.2168V32.6178H34.656V30.0378Z" fill="black" stroke="black" stroke-width="0.3"/>
<path d="M13.4563 30.0378H9.64111V32.6178H13.4563V30.0378Z" fill="black" stroke="black" stroke-width="0.3"/>
<path d="M27.3637 36.8805H9.64111V39.4605H27.3637V36.8805Z" fill="black" stroke="black" stroke-width="0.3"/>
<path d="M32.3374 42.863H14.5688V45.4429H32.3374V42.863Z" fill="black" stroke="black" stroke-width="0.3"/>
<path d="M11.8143 42.863H4.03955V45.4429H11.8143V42.863Z" fill="black" stroke="black" stroke-width="0.3"/>
<path d="M26.8326 49.2752H8.61084V51.8552H26.8326V49.2752Z" fill="black" stroke="black" stroke-width="0.3"/>
<path d="M36.3191 66.9768C34.739 66.9768 33.1944 66.5026 31.8806 65.6142C30.5669 64.7258 29.5429 63.463 28.9382 61.9856C28.3335 60.5082 28.1753 58.8825 28.4836 57.3141C28.7918 55.7457 29.5527 54.3051 30.67 53.1743C31.7873 52.0436 33.2108 51.2735 34.7605 50.9616C36.3102 50.6496 37.9166 50.8097 39.3764 51.4217C40.8362 52.0336 42.0839 53.0699 42.9617 54.3996C43.8396 55.7292 44.3081 57.2924 44.3081 58.8915C44.3058 61.0351 43.4634 63.0903 41.9657 64.6061C40.4679 66.1219 38.4372 66.9745 36.3191 66.9768ZM36.3191 53.3862C35.2432 53.3862 34.1915 53.7091 33.2969 54.314C32.4024 54.9189 31.7051 55.7787 31.2934 56.7847C30.8817 57.7907 30.774 58.8976 30.9839 59.9655C31.1938 61.0335 31.7118 62.0144 32.4726 62.7844C33.2334 63.5543 34.2026 64.0786 35.2579 64.291C36.3131 64.5035 37.4068 64.3944 38.4008 63.9778C39.3948 63.5611 40.2444 62.8554 40.8421 61.9501C41.4398 61.0448 41.7589 59.9804 41.7589 58.8915C41.7572 57.4319 41.1835 56.0326 40.1638 55.0005C39.144 53.9685 37.7613 53.3879 36.3191 53.3862Z" fill="black" stroke="black" stroke-width="0.3"/>
<path d="M69.5108 66.9999C67.9307 67.0001 66.386 66.526 65.0721 65.6377C63.7582 64.7494 62.7341 63.4867 62.1294 62.0093C61.5246 60.5319 61.3662 58.9062 61.6744 57.3378C61.9826 55.7693 62.7434 54.3286 63.8607 53.1978C64.9779 52.0669 66.4014 51.2968 67.9512 50.9848C69.5009 50.6727 71.1073 50.8328 72.5671 51.4447C74.027 52.0567 75.2747 53.093 76.1526 54.4226C77.0305 55.7522 77.4991 57.3155 77.4991 58.9146C77.4967 61.0581 76.6544 63.1132 75.1569 64.6289C73.6593 66.1447 71.6288 66.9974 69.5108 66.9999ZM69.5108 53.4101C68.4349 53.4101 67.3831 53.733 66.4886 54.338C65.594 54.943 64.8967 55.8028 64.485 56.8088C64.0733 57.8148 63.9657 58.9218 64.1756 59.9898C64.3856 61.0577 64.9037 62.0387 65.6646 62.8086C66.4254 63.5785 67.3948 64.1027 68.4501 64.3151C69.5053 64.5274 70.5991 64.4183 71.5931 64.0015C72.5871 63.5846 73.4366 62.8789 74.0342 61.9734C74.6319 61.068 74.9508 60.0035 74.9506 58.9146C74.9487 57.4552 74.375 56.0561 73.3552 55.0242C72.3354 53.9923 70.9529 53.4118 69.5108 53.4101Z" fill="black" stroke="black" stroke-width="0.3"/>
</svg>
