<svg width="88" height="88" viewBox="0 0 88 88" fill="none" xmlns="http://www.w3.org/2000/svg">
<rect width="88" height="88" fill="#FFAE34"/>
<path d="M63.6642 32.2447H25.707V11H63.6642V32.2447ZM28.2565 29.6952H61.1164V13.5494H28.2565V29.6952Z" fill="black"/>
<path d="M62.3892 21.6976H26.9814V24.2471H62.3892V21.6976Z" fill="black"/>
<path d="M45.3946 12.2747H42.8452V22.9724H45.3946V12.2747Z" fill="black"/>
<path d="M70.5219 65.9531H65.3643V63.4037H67.9725V57.4556H20.5494V63.4037H23.4409V65.9531H18V54.9061H70.5219V65.9531Z" fill="black"/>
<path d="M50.9919 70.4851H37.5312V73.0345H50.9919V70.4851Z" fill="black"/>
<path d="M30.6646 77.0001C28.8437 77.0001 27.0635 76.4601 25.5494 75.4484C24.0353 74.4367 22.8552 72.9987 22.1584 71.3164C21.4615 69.634 21.2792 67.7827 21.6344 65.9967C21.9897 64.2107 22.8666 62.5702 24.1542 61.2825C25.4419 59.9949 27.0824 59.118 28.8684 58.7627C30.6544 58.4075 32.5057 58.5898 34.1881 59.2867C35.8704 59.9835 37.3084 61.1636 38.3201 62.6777C39.3318 64.1918 39.8718 65.9719 39.8718 67.7929C39.8692 70.2341 38.8984 72.5745 37.1723 74.3006C35.4462 76.0267 33.1058 76.9975 30.6646 77.0001ZM30.6646 61.1376C29.348 61.1375 28.0609 61.5277 26.966 62.2591C25.8712 62.9905 25.0179 64.0301 24.5139 65.2465C24.0099 66.4629 23.878 67.8014 24.1348 69.0927C24.3915 70.3841 25.0255 71.5703 25.9564 72.5014C26.8874 73.4325 28.0735 74.0666 29.3649 74.3235C30.6562 74.5804 31.9947 74.4486 33.2112 73.9448C34.4276 73.441 35.4673 72.5877 36.1988 71.493C36.9303 70.3983 37.3208 69.1112 37.3208 67.7945C37.318 66.03 36.6159 64.3385 35.3683 63.0907C34.1206 61.8429 32.4292 61.1406 30.6646 61.1376Z" fill="black"/>
<path d="M57.8572 77.0001C56.1941 77.0003 54.5621 76.55 53.1344 75.6972C51.7067 74.8443 50.5366 73.6207 49.7485 72.1563C48.9604 70.6918 48.5836 69.0413 48.6582 67.3799C48.7328 65.7185 49.256 64.1084 50.1722 62.7205C51.0884 61.3326 52.3635 60.2188 53.8619 59.4973C55.3603 58.7759 57.0261 58.4737 58.6824 58.623C60.3388 58.7722 61.9237 59.3673 63.269 60.3451C64.6143 61.3228 65.6696 62.6466 66.323 64.176C66.9211 65.5762 67.1627 67.1029 67.026 68.6193C66.8893 70.1358 66.3787 71.5947 65.5399 72.8654C64.701 74.1361 63.5601 75.1789 62.2194 75.9005C60.8786 76.6221 59.3798 76.9999 57.8572 77.0001ZM57.8572 61.1376C56.5406 61.1376 55.2535 61.528 54.1588 62.2595C53.0641 62.991 52.2108 64.0307 51.707 65.247C51.2031 66.4634 51.0713 67.8019 51.3282 69.0932C51.585 70.3845 52.219 71.5707 53.15 72.5017C54.081 73.4327 55.2672 74.0667 56.5585 74.3235C57.8498 74.5804 59.1883 74.4486 60.4047 73.9447C61.6211 73.4409 62.6607 72.5876 63.3922 71.4929C64.1237 70.3982 64.5141 69.1111 64.5141 67.7945C64.5161 66.896 64.3344 66.0065 63.9799 65.1808C63.4685 63.9806 62.6153 62.9573 61.5266 62.2383C60.438 61.5194 59.1618 61.1366 57.8572 61.1376Z" fill="black"/>
<path d="M61.3067 53.5076H48.7874L28.627 33.3472H41.1463L61.3067 53.5076ZM49.8438 50.9582H55.1522L40.0906 35.8958H34.7814L49.8438 50.9582Z" fill="black"/>
<path d="M49.7599 43.7631L47.9574 41.9597L54.023 35.8957H48.7146L45.304 39.3071L43.5015 37.5046L47.659 33.3463H60.1791L49.7599 43.7631Z" fill="black"/>
<path d="M40.0183 53.5059H27.499L39.0452 41.9604L40.8478 43.763L33.6535 50.9572H38.9627L43.5012 46.4188L45.3037 48.2213L40.0183 53.5059Z" fill="black"/>
</svg>
