<svg width="88" height="88" viewBox="0 0 88 88" fill="none" xmlns="http://www.w3.org/2000/svg">
<rect width="88" height="88" fill="#FFAE34"/>
<path d="M33.6615 52.2836C23.9317 52.2836 16.0166 44.3675 16.0166 34.6377C16.0166 24.9079 23.9317 16.9897 33.6615 16.9897C43.3914 16.9897 51.3065 24.9048 51.3065 34.6347C51.3065 44.3645 43.3914 52.2836 33.6615 52.2836ZM33.6615 20.2203C25.7113 20.2203 19.2441 26.6874 19.2441 34.6377C19.2441 42.588 25.7113 49.0561 33.6615 49.0561C41.6118 49.0561 48.0769 42.588 48.0769 34.6377C48.0769 26.6874 41.6118 20.2203 33.6615 20.2203Z" fill="black" stroke="#FFAE34" stroke-width="0.3"/>
<path d="M25.1382 32.9998H21.9106C21.9138 30.3187 22.9803 27.7483 24.8761 25.8525C26.7719 23.9567 29.3423 22.8903 32.0233 22.8871V26.1146C30.1979 26.1167 28.4479 26.8428 27.1571 28.1336C25.8664 29.4243 25.1403 31.1744 25.1382 32.9998Z" fill="black" stroke="#FFAE34" stroke-width="0.3"/>
<path d="M66.7669 77.5584L47.3424 53.7166C43.352 56.5726 38.5686 58.1097 33.6615 58.1127C20.7172 58.1127 10.1865 47.5821 10.1865 34.6377C10.1865 21.6934 20.7172 11.1617 33.6615 11.1617C46.6058 11.1617 57.1365 21.6924 57.1365 34.6367H53.905C53.905 23.472 44.8223 14.3893 33.6575 14.3893C22.4928 14.3893 13.41 23.473 13.41 34.6377C13.41 45.8025 22.4928 54.8852 33.6575 54.8852C38.371 54.8836 42.9367 53.24 46.5697 50.2368L47.8227 49.1988L67.0151 72.7492L72.9808 66.7835L60.6253 58.2574L59.2447 59.6381L56.9627 57.3561L60.2455 54.0733L78 66.3273L66.7669 77.5584Z" fill="black" stroke="#FFAE34" stroke-width="0.3"/>
</svg>
