<svg width="88" height="88" viewBox="0 0 88 88" fill="none" xmlns="http://www.w3.org/2000/svg">
<rect width="88" height="88" fill="#FFAE34"/>
<path d="M47.5879 76.9999C46.7889 77.001 45.998 76.8385 45.2629 76.5222L27.93 69.0357C27.1013 68.6772 26.198 68.5308 25.2999 68.6096C24.4019 68.6883 23.537 68.9898 22.7818 69.4874L18.258 72.4633L16.8032 70.2026L21.3278 67.2275C22.4494 66.4882 23.7341 66.0401 25.068 65.9229C26.4019 65.8058 27.7437 66.0232 28.9746 66.5559L46.3067 74.0415C46.8213 74.262 47.3831 74.3463 47.9389 74.2865C48.4947 74.2267 49.0263 74.0249 49.4836 73.6999L74.1959 56.0372L72.9902 54.3129C72.6698 53.8566 72.1835 53.5473 71.638 53.4529C71.0924 53.3584 70.5321 53.4866 70.0798 53.8092L54.7805 64.2834L53.2858 62.0504L68.5644 51.5913C70.6835 50.076 73.657 50.5923 75.1707 52.7573L77.9175 56.6827L51.0281 75.8993C50.0211 76.6162 48.8195 77.0006 47.5879 76.9999Z" fill="black"/>
<path d="M53.007 57.7617H52.5827V56.4126L51.813 55.3129L61.1263 48.655C62.1561 47.919 63.4329 47.6267 64.6758 47.8424C65.9188 48.0581 67.0261 48.7641 67.7542 49.8051L69.581 52.53L67.3722 54.0411L65.5645 51.3397C65.2413 50.8909 64.7563 50.5888 64.2145 50.4986C63.6727 50.4084 63.1176 50.5375 62.6691 50.8578L53.007 57.7617Z" fill="black"/>
<path d="M56.4494 52.0639L51.8843 55.3269L53.424 57.5286L57.9891 54.2657L56.4494 52.0639Z" fill="black"/>
<path d="M43.5295 56.5662L42.0083 54.3517L52.7706 46.7904C53.7506 46.0936 54.9641 45.8181 56.1447 46.0244C57.3254 46.2307 58.377 46.902 59.0688 47.891L60.8649 50.5026L58.6744 52.0422L56.885 49.4398C56.5991 49.0358 56.1666 48.7627 55.6821 48.6801C55.1975 48.5975 54.7004 48.7122 54.2992 48.9991L43.5295 56.5662Z" fill="black"/>
<path d="M51.6103 65.3841C51.4525 65.3841 51.2948 65.3774 51.1362 65.3623C50.7783 65.332 42.1683 64.595 39.2239 64.2709C37.5914 64.093 32.8633 63.4684 32.664 63.4415L33.0103 60.7678C33.0593 60.7745 37.9094 61.415 39.5112 61.5896C42.429 61.907 51.2806 62.6658 51.3703 62.6734C51.6978 62.7042 52.028 62.6695 52.3421 62.5711C52.6562 62.4727 52.948 62.3127 53.2009 62.1001C53.4537 61.8875 53.6626 61.6266 53.8156 61.3323C53.9685 61.038 54.0625 60.7161 54.0922 60.385C54.1461 59.8094 53.9752 59.2353 53.616 58.7855C53.2568 58.3356 52.7378 58.0456 52.17 57.9773L42.8492 56.8231C40.7116 56.6224 38.6557 55.8927 36.8631 54.6983L34.7972 53.3174C33.5215 52.463 32.0741 51.9057 30.5594 51.6858C29.0447 51.4658 27.5006 51.5887 26.0386 52.0456L11.783 56.478L11 53.9L25.2556 49.4717C27.0932 48.8971 29.0341 48.7421 30.9382 49.018C32.8423 49.2938 34.662 49.9935 36.2661 51.0667L38.332 52.4451C39.7629 53.398 41.4044 53.9787 43.1108 54.1359L43.1531 54.1409L52.493 55.3011C53.7496 55.4523 54.8979 56.0946 55.6922 57.0906C56.4866 58.0866 56.8639 59.3573 56.7436 60.6309C56.6276 61.928 56.0366 63.1345 55.0863 64.0138C54.1361 64.8931 52.8952 65.3818 51.607 65.3841H51.6103Z" fill="black"/>
<path d="M46.9513 48.2663H39.6541V42.7786C38.6171 42.4903 37.6181 42.0768 36.6789 41.5471L32.851 45.4171L27.6903 40.2005L31.4942 36.3549C30.9538 35.3996 30.5314 34.381 30.2362 33.3218H24.8721V25.9445H30.2113C30.5017 24.8744 30.9217 23.8447 31.4618 22.8787L27.6903 19.0666L32.851 13.8492L36.6216 17.6621C37.5771 17.1161 38.5957 16.6915 39.6541 16.3979V11H46.9513V16.4231C47.9988 16.722 49.0062 17.1491 49.9514 17.6949L53.7544 13.8492L58.9151 19.0666L55.083 22.9366C55.6076 23.8859 56.0169 24.8959 56.3019 25.9445H61.73V33.3218H56.2803C55.991 34.3598 55.5795 35.3589 55.0547 36.2978L58.9151 40.2005L53.7544 45.4171L49.8949 41.5143C48.9662 42.0448 47.9779 42.4607 46.9513 42.7534V48.2663ZM42.3212 45.5699H44.2883V40.58L45.3678 40.3668C46.7951 40.0859 48.1511 39.5147 49.3535 38.6878L50.2669 38.0632L53.7544 41.6042L55.1427 40.2005L51.6436 36.6621L52.2614 35.7387C53.0787 34.5229 53.6437 33.1521 53.9221 31.7092L54.1339 30.6179H59.0687V28.6409H54.1397L53.9354 27.5454C53.6665 26.0938 53.1077 24.713 52.293 23.4873L51.6835 22.5639L55.1427 19.0666L53.7544 17.663L50.3026 21.1519L49.3892 20.5189C48.1763 19.6761 46.8049 19.0943 45.3603 18.8097L44.2808 18.5965V13.6939H42.3212V18.5847L41.2343 18.7912C39.7797 19.0669 38.3972 19.643 37.173 20.4836L36.2596 21.1082L32.8493 17.6605L31.4626 19.0666L34.8729 22.5143L34.2551 23.4378C33.4231 24.6758 32.853 26.0742 32.5803 27.5454L32.376 28.6442H27.5392V30.6288H32.3851L32.5969 31.7201C32.8784 33.1803 33.4539 34.5665 34.2875 35.7924L34.9136 36.7159L31.4626 40.2056L32.851 41.6092L36.3102 38.1111L37.2236 38.7273C38.4361 39.5507 39.8019 40.1157 41.2376 40.3878L42.3245 40.5943L42.3212 45.5699Z" fill="black"/>
<path d="M43.2137 36.6531C41.7701 36.6526 40.359 36.2194 39.1589 35.4081C37.9588 34.5969 37.0236 33.4442 36.4714 32.0956C35.9193 30.7471 35.7751 29.2633 36.0571 27.8319C36.339 26.4005 37.0344 25.0858 38.0554 24.0539C39.0764 23.0221 40.3771 22.3195 41.793 22.0349C43.2089 21.7504 44.6765 21.8967 46.0102 22.4553C47.3439 23.014 48.4838 23.9599 49.2858 25.1734C50.0878 26.387 50.5159 27.8137 50.5159 29.2732C50.5139 31.2303 49.7438 33.1066 48.3748 34.4903C47.0057 35.8739 45.1495 36.6518 43.2137 36.6531ZM43.2137 24.5897C42.2975 24.5897 41.4018 24.8644 40.64 25.379C39.8782 25.8937 39.2844 26.6251 38.9338 27.4809C38.5831 28.3367 38.4914 29.2784 38.6701 30.1869C38.8489 31.0954 39.2901 31.9299 39.938 32.5849C40.5859 33.2399 41.4113 33.686 42.3099 33.8667C43.2086 34.0474 44.14 33.9546 44.9865 33.6002C45.833 33.2457 46.5565 32.6454 47.0655 31.8752C47.5746 31.105 47.8463 30.1995 47.8463 29.2732C47.8447 28.0315 47.3562 26.8412 46.4877 25.9632C45.6193 25.0852 44.4419 24.5913 43.2137 24.5897Z" fill="black"/>
</svg>
