<svg width="88" height="88" viewBox="0 0 88 88" fill="none" xmlns="http://www.w3.org/2000/svg">
<rect width="88" height="88" fill="#FFAE34"/>
<path d="M75.3429 71.1168H13.0225V31.884H75.3429V71.1168ZM15.8811 68.2305H72.4851V34.7748H15.8811V68.2305Z" fill="black"/>
<path d="M75.3251 59.8839H50.6988C49.689 59.895 48.6871 59.7034 47.751 59.3202C46.8149 58.9371 45.9632 58.37 45.2453 57.6518C44.5274 56.9336 43.9575 56.0786 43.5685 55.1362C43.1795 54.1938 42.9792 53.1827 42.9792 52.1615C42.9792 51.1403 43.1795 50.1292 43.5685 49.1868C43.9575 48.2444 44.5274 47.3894 45.2453 46.6712C45.9632 45.953 46.8149 45.3859 47.751 45.0028C48.6871 44.6196 49.689 44.428 50.6988 44.439H75.3251V59.8839ZM50.6988 47.3298C50.0658 47.3211 49.4375 47.4396 48.8502 47.6785C48.263 47.9174 47.7285 48.2719 47.2779 48.7214C46.8272 49.171 46.4694 49.7066 46.2252 50.2971C45.9809 50.8877 45.8552 51.5214 45.8552 52.1615C45.8552 52.8016 45.9809 53.4353 46.2252 54.0259C46.4694 54.6164 46.8272 55.152 47.2779 55.6015C47.7285 56.0511 48.263 56.4056 48.8502 56.6445C49.4375 56.8834 50.0658 57.0019 50.6988 56.9931H72.4664V47.3298H50.6988Z" fill="black"/>
<path d="M15.8811 29.4774H13.0225V23.3673H41.6413V26.2581H15.8811V29.4774Z" fill="black"/>
<path d="M61.4188 34.2619L49.5489 20.0743L33.1515 34.1044L31.3057 31.8976L49.8853 16L63.602 32.3953L61.4188 34.2619Z" fill="black"/>
<path d="M67.6702 34.2619L56.878 21.3568L54.6165 23.2918L52.7698 21.085L57.2144 17.2816L69.8533 32.3953L67.6702 34.2619Z" fill="black"/>
<path d="M51.2507 56.1954C50.4493 56.1952 49.666 55.9547 48.9997 55.5044C48.3335 55.054 47.8142 54.414 47.5077 53.6652C47.2011 52.9164 47.121 52.0925 47.2774 51.2977C47.4339 50.5029 47.8199 49.7729 48.3866 49.1999C48.9534 48.6269 49.6754 48.2367 50.4614 48.0787C51.2474 47.9206 52.0622 48.0018 52.8025 48.312C53.5429 48.6222 54.1757 49.1474 54.621 49.8212C55.0662 50.4951 55.3038 51.2873 55.3038 52.0977C55.3026 53.1843 54.8752 54.226 54.1153 54.9942C53.3555 55.7624 52.3252 56.1944 51.2507 56.1954ZM51.2507 50.8908C51.0145 50.8908 50.7835 50.9617 50.5871 51.0944C50.3907 51.2272 50.2376 51.4158 50.1472 51.6366C50.0568 51.8573 50.0332 52.1002 50.0794 52.3346C50.1255 52.5689 50.2394 52.7841 50.4065 52.953C50.5736 53.1218 50.7865 53.2368 51.0183 53.2833C51.25 53.3298 51.4902 53.3058 51.7084 53.2142C51.9267 53.1226 52.1131 52.9677 52.2443 52.769C52.3754 52.5702 52.4453 52.3366 52.4451 52.0977C52.4447 51.7776 52.3186 51.4708 52.0947 51.2445C51.8708 51.0182 51.5673 50.891 51.2507 50.8908Z" fill="black"/>
<path d="M73.8958 24.1981H62.3347V27.0889H73.8958V24.1981Z" fill="black"/>
</svg>
