<svg width="100" height="101" viewBox="0 0 100 101" fill="none" xmlns="http://www.w3.org/2000/svg">
<path d="M87.5993 49.8245H12V39.402H87.5993V49.8245ZM15.1508 46.6737H84.4485V42.5538H15.1508V46.6737Z" fill="#4F4F4F"/>
<path d="M87.5993 92.8839H12V81.2882H87.5993V92.8839ZM15.1508 89.7341H84.4485V84.437H15.1508V89.7341Z" fill="#4F4F4F"/>
<path d="M83.8225 84.442H15.7775V46.6757H83.8225V84.442ZM18.9282 81.2883H80.6717V49.8246H18.9282V81.2883Z" fill="#4F4F4F"/>
<path d="M29.2734 42.4222H16.2926V34.3559H29.2734V42.4222ZM19.4434 39.2714H26.1197V37.5057H19.4434V39.2714Z" fill="#4F4F4F"/>
<path d="M26.8152 35.9334H23.6673V21.1859C23.6678 21.0692 23.645 20.9535 23.6002 20.8457C23.5553 20.7379 23.4895 20.6401 23.4064 20.5581C23.3254 20.4765 23.229 20.4118 23.1227 20.368C23.0164 20.3242 22.9024 20.3022 22.7874 20.3031C22.5533 20.3031 22.3287 20.3961 22.1631 20.5616C21.9976 20.7272 21.9046 20.9518 21.9046 21.1859V35.9334H18.7508V21.1859C18.7425 20.6511 18.8406 20.12 19.0395 19.6235C19.2384 19.1269 19.5341 18.675 19.9093 18.2938C20.2846 17.9127 20.7319 17.61 21.2252 17.4034C21.7186 17.1968 22.2481 17.0904 22.783 17.0904C23.3179 17.0904 23.8474 17.1968 24.3407 17.4034C24.8341 17.61 25.2814 17.9127 25.6567 18.2938C26.0319 18.675 26.3276 19.1269 26.5265 19.6235C26.7254 20.12 26.8235 20.6511 26.8152 21.1859V35.9334Z" fill="#4F4F4F"/>
<path d="M83.1801 42.4222H70.1993V34.3559H83.1801V42.4222ZM73.35 39.2714H80.0293V37.5057H73.35V39.2714Z" fill="#4F4F4F"/>
<path d="M80.7218 35.9334H77.571V21.1859C77.5717 21.0691 77.549 20.9534 77.5042 20.8456C77.4594 20.7377 77.3934 20.64 77.3101 20.5581C77.2291 20.4765 77.1327 20.4118 77.0264 20.368C76.9201 20.3242 76.8061 20.3022 76.6911 20.3031C76.457 20.3031 76.2324 20.3961 76.0669 20.5616C75.9013 20.7272 75.8083 20.9518 75.8083 21.1859V35.9334H72.6575V21.1859C72.6492 20.6511 72.7473 20.12 72.9462 19.6235C73.1451 19.1269 73.4407 18.675 73.816 18.2938C74.1912 17.9127 74.6386 17.61 75.1319 17.4034C75.6253 17.1968 76.1548 17.0904 76.6897 17.0904C77.2245 17.0904 77.7541 17.1968 78.2474 17.4034C78.7408 17.61 79.1881 17.9127 79.5633 18.2938C79.9386 18.675 80.2343 19.1269 80.4331 19.6235C80.632 20.12 80.7302 20.6511 80.7218 21.1859V35.9334Z" fill="#4F4F4F"/>
<path d="M37.4475 35.2623L39.8538 18.6286L36.2243 23.6922H28.62V20.5414H34.6057L45.811 4.91007L42.0138 23.8943L50.9227 10.5319L51.5839 22.4385L61.5345 3.64368V22.8702L62.9255 20.1843H70.98V23.3351H64.8423L58.3838 35.8019V16.3282L49.0668 33.9273L48.3007 20.1441L37.4475 35.2623Z" fill="#4F4F4F"/>
<path d="M87.5993 49.8245H12V39.402H87.5993V49.8245ZM15.1508 46.6737H84.4485V42.5538H15.1508V46.6737Z" stroke="#4F4F4F" stroke-width="0.3"/>
<path d="M87.5993 92.8839H12V81.2882H87.5993V92.8839ZM15.1508 89.7341H84.4485V84.437H15.1508V89.7341Z" stroke="#4F4F4F" stroke-width="0.3"/>
<path d="M83.8225 84.442H15.7775V46.6757H83.8225V84.442ZM18.9282 81.2883H80.6717V49.8246H18.9282V81.2883Z" stroke="#4F4F4F" stroke-width="0.3"/>
<path d="M29.2734 42.4222H16.2926V34.3559H29.2734V42.4222ZM19.4434 39.2714H26.1197V37.5057H19.4434V39.2714Z" stroke="#4F4F4F" stroke-width="0.3"/>
<path d="M26.8152 35.9334H23.6673V21.1859C23.6678 21.0692 23.645 20.9535 23.6002 20.8457C23.5553 20.7379 23.4895 20.6401 23.4064 20.5581C23.3254 20.4765 23.229 20.4118 23.1227 20.368C23.0164 20.3242 22.9024 20.3022 22.7874 20.3031C22.5533 20.3031 22.3287 20.3961 22.1631 20.5616C21.9976 20.7272 21.9046 20.9518 21.9046 21.1859V35.9334H18.7508V21.1859C18.7425 20.6511 18.8406 20.12 19.0395 19.6235C19.2384 19.1269 19.5341 18.675 19.9093 18.2938C20.2846 17.9127 20.7319 17.61 21.2252 17.4034C21.7186 17.1968 22.2481 17.0904 22.783 17.0904C23.3179 17.0904 23.8474 17.1968 24.3407 17.4034C24.8341 17.61 25.2814 17.9127 25.6567 18.2938C26.0319 18.675 26.3276 19.1269 26.5265 19.6235C26.7254 20.12 26.8235 20.6511 26.8152 21.1859V35.9334Z" stroke="#4F4F4F" stroke-width="0.3"/>
<path d="M83.1801 42.4222H70.1993V34.3559H83.1801V42.4222ZM73.35 39.2714H80.0293V37.5057H73.35V39.2714Z" stroke="#4F4F4F" stroke-width="0.3"/>
<path d="M80.7218 35.9334H77.571V21.1859C77.5717 21.0691 77.549 20.9534 77.5042 20.8456C77.4594 20.7377 77.3934 20.64 77.3101 20.5581C77.2291 20.4765 77.1327 20.4118 77.0264 20.368C76.9201 20.3242 76.8061 20.3022 76.6911 20.3031C76.457 20.3031 76.2324 20.3961 76.0669 20.5616C75.9013 20.7272 75.8083 20.9518 75.8083 21.1859V35.9334H72.6575V21.1859C72.6492 20.6511 72.7473 20.12 72.9462 19.6235C73.1451 19.1269 73.4407 18.675 73.816 18.2938C74.1912 17.9127 74.6386 17.61 75.1319 17.4034C75.6253 17.1968 76.1548 17.0904 76.6897 17.0904C77.2245 17.0904 77.7541 17.1968 78.2474 17.4034C78.7408 17.61 79.1881 17.9127 79.5633 18.2938C79.9386 18.675 80.2343 19.1269 80.4331 19.6235C80.632 20.12 80.7302 20.6511 80.7218 21.1859V35.9334Z" stroke="#4F4F4F" stroke-width="0.3"/>
<path d="M37.4475 35.2623L39.8538 18.6286L36.2243 23.6922H28.62V20.5414H34.6057L45.811 4.91007L42.0138 23.8943L50.9227 10.5319L51.5839 22.4385L61.5345 3.64368V22.8702L62.9255 20.1843H70.98V23.3351H64.8423L58.3838 35.8019V16.3282L49.0668 33.9273L48.3007 20.1441L37.4475 35.2623Z" stroke="#4F4F4F" stroke-width="0.3"/>
</svg>
