<svg width="100" height="101" viewBox="0 0 100 101" fill="none" xmlns="http://www.w3.org/2000/svg">
<path d="M75.8854 34.5885H25.2759V6.26233H75.8854V34.5885ZM28.6751 31.1893H72.4883V9.66156H28.6751V31.1893Z" fill="#4F4F4F"/>
<path d="M74.1864 20.5259H26.9761V23.9251H74.1864V20.5259Z" fill="#4F4F4F"/>
<path d="M51.5257 7.96191H48.1265V22.2256H51.5257V7.96191Z" fill="#4F4F4F"/>
<path d="M85.0292 79.533H78.1524V76.1338H81.63V68.2029H18.3992V76.1338H22.2546V79.533H15V64.8037H85.0292V79.533Z" fill="#4F4F4F"/>
<path d="M58.9891 85.5759H41.0415V88.9751H58.9891V85.5759Z" fill="#4F4F4F"/>
<path d="M31.886 94.2624C29.458 94.2624 27.0846 93.5424 25.0658 92.1935C23.047 90.8446 21.4735 88.9273 20.5443 86.6841C19.6152 84.441 19.3721 81.9726 19.8458 79.5913C20.3194 77.21 21.4886 75.0225 23.2055 73.3057C24.9223 71.5888 27.1097 70.4196 29.4911 69.946C31.8724 69.4723 34.3407 69.7154 36.5839 70.6446C38.8271 71.5737 40.7444 73.1472 42.0933 75.166C43.4422 77.1848 44.1622 79.5583 44.1622 81.9863C44.1588 85.2411 42.8644 88.3616 40.5629 90.6631C38.2614 92.9646 35.1408 94.2591 31.886 94.2624ZM31.886 73.1125C30.1305 73.1123 28.4143 73.6327 26.9546 74.6078C25.4948 75.583 24.357 76.9691 23.685 78.591C23.0131 80.2128 22.8372 81.9975 23.1795 83.7193C23.5219 85.4411 24.3671 87.0228 25.6084 88.2642C26.8497 89.5056 28.4312 90.3511 30.153 90.6936C31.8748 91.0362 33.6595 90.8605 35.2814 90.1887C36.9033 89.517 38.2896 88.3793 39.2649 86.9197C40.2403 85.46 40.7609 83.7439 40.7609 81.9884C40.7572 79.6356 39.8211 77.3803 38.1575 75.7166C36.494 74.0528 34.2388 73.1164 31.886 73.1125Z" fill="#4F4F4F"/>
<path d="M68.1429 94.2624C65.9255 94.2627 63.7494 93.6624 61.8458 92.5252C59.9422 91.3881 58.3822 89.7566 57.3313 87.804C56.2805 85.8514 55.7781 83.6507 55.8776 81.4355C55.9771 79.2204 56.6747 77.0735 57.8963 75.223C59.1179 73.3724 60.8179 71.8873 62.8158 70.9254C64.8137 69.9635 67.0348 69.5606 69.2433 69.7596C71.4517 69.9587 73.565 70.7521 75.3587 72.0558C77.1524 73.3594 78.5595 75.1245 79.4306 77.1636C80.2282 79.0306 80.5502 81.0661 80.368 83.0881C80.1858 85.1101 79.505 87.0553 78.3865 88.7495C77.268 90.4438 75.7468 91.8342 73.9591 92.7963C72.1714 93.7584 70.1731 94.2622 68.1429 94.2624ZM68.1429 73.1125C66.3874 73.1125 64.6714 73.6331 63.2117 74.6083C61.7521 75.5836 60.6145 76.9699 59.9427 78.5917C59.2709 80.2136 59.0951 81.9982 59.4376 83.72C59.78 85.4417 60.6254 87.0232 61.8667 88.2646C63.108 89.5059 64.6896 90.3512 66.4113 90.6937C68.1331 91.0362 69.9177 90.8604 71.5396 90.1886C73.1614 89.5168 74.5476 88.3792 75.5229 86.9195C76.4982 85.4599 77.0188 83.7438 77.0188 81.9884C77.0215 80.7903 76.7791 79.6043 76.3066 78.5034C75.6247 76.9031 74.4871 75.5387 73.0355 74.5801C71.5839 73.6215 69.8824 73.1112 68.1429 73.1125Z" fill="#4F4F4F"/>
<path d="M72.7424 62.939H56.05L29.1694 36.0585H45.8618L72.7424 62.939ZM57.4586 59.5398H64.5364L44.4543 39.4566H37.3754L57.4586 59.5398Z" fill="#4F4F4F"/>
<path d="M57.3461 49.9464L54.9427 47.5419L63.0302 39.4566H55.9523L51.4048 44.0051L49.0015 41.6018L54.5448 36.0574H71.2383L57.3461 49.9464Z" fill="#4F4F4F"/>
<path d="M44.358 62.937H27.6655L43.0605 47.5431L45.4639 49.9465L35.8715 59.5388H42.9504L49.0017 53.4875L51.4051 55.8909L44.358 62.937Z" fill="#4F4F4F"/>
</svg>
