<svg width="100" height="101" viewBox="0 0 100 101" fill="none" xmlns="http://www.w3.org/2000/svg">
<path d="M43.3485 21.0034H24.3638V12.3202H43.3485V21.0034ZM28.0009 17.3731H39.7136V15.9551H28.0009V17.3731Z" fill="#4F4F4F"/>
<path d="M46.1759 15.3496H21.5352V6.26233H46.1714L46.1759 15.3496ZM25.1746 11.7147H42.541V9.89722H25.1746V11.7147Z" fill="#4F4F4F"/>
<path d="M79.9997 95.1181H17.8003V17.9751H58.0761L79.9963 39.8999L79.9997 95.1181ZM21.4386 91.4787H76.3648V41.405L56.5732 21.61H21.4386V91.4787Z" fill="#4F4F4F"/>
<path d="M48.7003 71.4663C46.1176 71.4633 43.6416 70.4356 41.8159 68.6088C39.9902 66.782 38.9639 64.3054 38.9624 61.7227C38.9624 57.101 45.7592 44.9356 47.1217 42.5433L48.706 39.7719L50.279 42.5433C51.637 44.9356 58.4383 57.101 58.4383 61.7227C58.4368 64.3054 57.4105 66.782 55.5848 68.6088C53.7591 70.4356 51.2831 71.4633 48.7003 71.4663ZM48.7003 47.208C45.8848 52.4544 42.5962 59.3575 42.5962 61.7227C42.5962 63.3416 43.2393 64.8942 44.384 66.039C45.5288 67.1837 47.0814 67.8268 48.7003 67.8268C50.3193 67.8268 51.8719 67.1837 53.0166 66.039C54.1614 64.8942 54.8045 63.3416 54.8045 61.7227C54.8056 59.3575 51.5148 52.4544 48.7003 47.2035V47.208Z" fill="#4F4F4F"/>
<path d="M71.2308 84.107H26.5732V28.9805H55.5562L71.2308 44.6585V84.107ZM30.207 80.4732H67.5936V46.1636L54.0511 32.6154H30.207V80.4732Z" fill="#4F4F4F"/>
<path d="M79.9999 31.7055H76.365V21.61H64.6523V17.9751H79.9999V31.7055Z" fill="#4F4F4F"/>
</svg>
