<svg width="88" height="88" viewBox="0 0 88 88" fill="none" xmlns="http://www.w3.org/2000/svg">
<rect width="88" height="88" fill="#FFAE34"/>
<g clip-path="url(#clip0_561_29)">
<path d="M64.999 56.7537C64.999 54.4213 63.4686 52.4397 61.3593 51.7602C61.7667 51.0149 61.9984 50.1603 61.9984 49.2527C61.9984 46.3609 59.6458 44.0082 56.7539 44.0082H42.8976L44.7722 34.1134C45.646 30.1161 42.2366 25.8898 38.0534 26.0022H34.5636L31.8749 35.3104C30.7386 39.2441 27.9473 42.3982 24.1956 44.0057H14.0012V73.9994H24.1814L30.9641 77H53.7533C56.6452 77 58.9978 74.6473 58.9978 71.7555C58.9978 70.8479 58.766 69.9934 58.3587 69.248C60.468 68.5685 61.9984 66.5869 61.9984 64.2545C61.9984 63.3469 61.7667 62.4924 61.3593 61.7471C63.4686 61.0677 64.999 59.086 64.999 56.7537ZM16.9894 46.994H23.003V71.0113H16.9894V46.994ZM59.7543 59.0101H52.6578V61.9983H56.7539C57.9981 61.9983 59.0103 63.0105 59.0103 64.2546C59.0103 65.4988 57.9981 66.511 56.7539 66.511H52.6578V69.4991H53.7533C54.9975 69.4991 56.0097 70.5113 56.0097 71.7555C56.0097 72.9997 54.9975 74.0119 53.7533 74.0119H31.5956L25.9912 71.5325V46.4725C30.1491 44.5116 33.4752 40.6295 34.7458 36.1399L36.8109 28.9905H38.0535C40.3119 28.9289 42.3362 31.2215 41.8364 33.5574L39.2902 46.9966H56.7539C57.9981 46.9966 59.0103 48.0087 59.0103 49.2529C59.0103 50.4971 57.9981 51.5093 56.7539 51.5093H52.6578V54.4974H59.7543C60.9986 54.4974 62.0109 55.5096 62.0109 56.7538C62.0109 57.9979 60.9986 59.0101 59.7543 59.0101Z" fill="black"/>
<path d="M58.6016 25.7968L56.1015 23.2969L53.3672 26.0312L58.6016 31.2657L67.7031 22.164L64.9688 19.4297L58.6016 25.7968Z" fill="black" stroke="#FFAE34"/>
<path d="M60.5352 11C53.0719 11 47 17.1296 47 24.6641C47 32.1273 53.0719 38.1992 60.5352 38.1992C67.9984 38.1992 74.0703 32.1273 74.0703 24.6641C74.0703 17.1296 67.9984 11 60.5352 11ZM60.5352 34.332C55.2042 34.332 50.8672 29.995 50.8672 24.6641C50.8672 19.262 55.2042 14.8672 60.5352 14.8672C65.8661 14.8672 70.2031 19.262 70.2031 24.6641C70.2031 29.995 65.8661 34.332 60.5352 34.332Z" fill="black" stroke="#FFAE34"/>
</g>
<defs>
<clipPath id="clip0_561_29">
<rect width="60" height="66" fill="white" transform="translate(14 11)"/>
</clipPath>
</defs>
</svg>
