<svg width="32" height="32" viewBox="0 0 32 32" fill="none" xmlns="http://www.w3.org/2000/svg">
<path d="M15.8333 5C9.875 5 5 9.875 5 15.8333C5 21.7917 9.875 26.6667 15.8333 26.6667C21.7917 26.6667 26.6667 21.7917 26.6667 15.8333C26.6667 9.875 21.7917 5 15.8333 5ZM19.6792 19.95L15.2592 17.2308C14.9342 17.0358 14.7392 16.6892 14.7392 16.31V11.2292C14.75 10.785 15.1183 10.4167 15.5625 10.4167C16.0067 10.4167 16.375 10.785 16.375 11.2292V16.05L20.535 18.5525C20.925 18.7908 21.055 19.3 20.8167 19.69C20.5783 20.0692 20.0692 20.1883 19.6792 19.95Z" fill="#232323"/>
</svg>
