<svg width="100" height="101" viewBox="0 0 100 101" fill="none" xmlns="http://www.w3.org/2000/svg">
<path d="M49.4011 60.8536L47.554 58.2531L61.9876 47.6011V37.862L41.0896 28.9847H69.1328L69.019 22.9189H27.6791V29.8625L58.2394 42.839L43.9667 52.8781L42.1774 50.2356L51.6965 43.5399L24.5283 32.0041V19.7085H72.1089L72.3453 32.1961H56.8386L65.1374 35.7214V49.2408L49.4011 60.8536Z" fill="black"/>
<path d="M95.7697 35.9434H69.1646V14.8915H95.7697V35.9434ZM72.3153 32.732H92.6209V18.1029H72.3153V32.732Z" fill="black"/>
<path d="M57.1104 69.4829H52.6579V68.559L37.3542 45.9334H16.3022V61.8264H13.1514V42.722H39.009L57.1104 69.4829Z" fill="black"/>
<path d="M46.4154 66.2716H30.5918V69.483H46.4154V66.2716Z" fill="black"/>
<path d="M94.1941 24.3616H70.7388V27.573H94.1941V24.3616Z" fill="black"/>
<path d="M84.0424 16.4972H80.8916V25.9684H84.0424V16.4972Z" fill="black"/>
<path d="M19.1264 89.5051C10.9973 89.5051 4.38379 82.7644 4.38379 74.479C4.38379 66.1936 10.9973 59.4509 19.1264 59.4509C27.2554 59.4509 33.869 66.1916 33.869 74.477C33.869 82.7624 27.2554 89.5051 19.1264 89.5051ZM19.1264 62.6643C16.8339 62.6653 14.5933 63.3591 12.6877 64.6579C10.782 65.9567 9.29705 67.8022 8.42045 69.9612C7.54384 72.1201 7.31499 74.4955 7.76281 76.787C8.21064 79.0785 9.31504 81.1832 10.9364 82.8351C12.5577 84.4869 14.6232 85.6116 16.8716 86.0671C19.1201 86.5226 21.4506 86.2883 23.5684 85.3939C25.6862 84.4996 27.4963 82.9852 28.7698 81.0424C30.0434 79.0996 30.7231 76.8155 30.7231 74.479C30.7194 71.3458 29.4963 68.3421 27.3222 66.1271C25.148 63.9121 22.2004 62.6667 19.1264 62.6643Z" fill="black"/>
<path d="M49.5359 88.8063C47.2985 88.8063 45.1114 88.1301 43.2511 86.8631C41.3908 85.5962 39.9409 83.7955 39.0847 81.6887C38.2285 79.582 38.0045 77.2637 38.441 75.0271C38.8775 72.7906 39.9549 70.7362 41.5369 69.1237C43.119 67.5112 45.1346 66.4131 47.329 65.9683C49.5233 65.5234 51.7978 65.7517 53.8649 66.6244C55.9319 67.497 57.6986 68.9748 58.9416 70.8709C60.1847 72.7669 60.8481 74.9961 60.8481 77.2765C60.8447 80.3333 59.6518 83.264 57.5311 85.4255C55.4104 87.587 52.535 88.8028 49.5359 88.8063ZM49.5359 68.9571C47.9215 68.9573 46.3435 69.4454 45.0013 70.3596C43.6592 71.2739 42.6131 72.5733 41.9955 74.0935C41.3778 75.6137 41.2163 77.2864 41.5314 78.9001C41.8464 80.5139 42.6239 81.9962 43.7655 83.1595C44.9071 84.3229 46.3615 85.1152 47.9448 85.4361C49.5281 85.757 51.1693 85.5922 52.6607 84.9625C54.1521 84.3328 55.4269 83.2665 56.3237 81.8984C57.2206 80.5303 57.6993 78.9219 57.6993 77.2765C57.6969 75.0706 56.8361 72.9558 55.3056 71.3961C53.7752 69.8364 51.7001 68.9592 49.5359 68.9571Z" fill="black"/>
<path d="M31.0058 57.7082H14.7271V54.4968H27.855V44.3278H31.0058V57.7082Z" fill="black"/>
<path d="M46.2671 54.4968H28.5474V57.7082H46.2671V54.4968Z" fill="black"/>
<path d="M62.6324 35.4906L54.0391 41.8892L55.8977 44.4823L64.4911 38.0837L62.6324 35.4906Z" fill="black"/>
<path d="M26.686 19.8216L25.5205 22.8052L48.3811 32.0822L49.5466 29.0986L26.686 19.8216Z" fill="black"/>
</svg>
